<svg width="185" height="52" viewBox="0 0 185 52" fill="none" xmlns="http://www.w3.org/2000/svg">
<path d="M178.167 1.02652C181.338 1.02652 183.907 3.43883 183.907 6.41573V44.9101C183.907 47.887 181.338 50.2993 178.167 50.2993H7.33382C4.16315 50.2993 1.59382 47.887 1.59382 44.9101V6.41573C1.59382 3.43883 4.16315 1.02652 7.33382 1.02652H178.167V1.02652ZM178.167 0H7.33382C3.57549 0 0.500488 2.88708 0.500488 6.41573V44.9101C0.500488 48.4388 3.57549 51.3258 7.33382 51.3258H178.167C181.925 51.3258 185 48.4388 185 44.9101V6.41573C185 2.88708 181.925 0 178.167 0Z" fill="white"/>
<path d="M65.3079 13.1401C65.3079 14.218 64.9662 15.0777 64.2829 15.7064C63.5175 16.4635 62.5062 16.8484 61.2762 16.8484C60.0872 16.8484 59.0895 16.4635 58.2559 15.6936C57.4222 14.9237 57.0122 13.9613 57.0122 12.8322C57.0122 11.6902 57.4222 10.7406 58.2559 9.97075C59.0895 9.20086 60.0872 8.81592 61.2762 8.81592C61.8639 8.81592 62.4242 8.91857 62.9572 9.1367C63.4902 9.35484 63.9139 9.63713 64.2419 9.99641L63.5175 10.6765C62.9709 10.0734 62.2329 9.76545 61.2762 9.76545C60.4152 9.76545 59.6635 10.0477 59.0349 10.6252C58.4062 11.1897 58.0919 11.934 58.0919 12.845C58.0919 13.756 58.4062 14.5003 59.0349 15.0648C59.6635 15.6294 60.4152 15.9246 61.2762 15.9246C62.1919 15.9246 62.9572 15.6423 63.5722 15.0648C63.9685 14.6927 64.2009 14.1666 64.2555 13.4994H61.2762V12.5627H65.2532C65.2805 12.768 65.3079 12.9605 65.3079 13.1401Z" fill="white" stroke="white" stroke-width="0.256629" stroke-miterlimit="10"/>
<path d="M71.6079 9.93244H67.8768V12.3704H71.2389V13.2943H67.8768V15.7323H71.6079V16.6818H66.8245V8.98291H71.6079V9.93244V9.93244Z" fill="white" stroke="white" stroke-width="0.256629" stroke-miterlimit="10"/>
<path d="M76.0493 16.6818H74.9969V9.93244H72.7009V8.98291H78.3316V9.93244H76.0356V16.6818H76.0493Z" fill="white" stroke="white" stroke-width="0.256629" stroke-miterlimit="10"/>
<path d="M82.4177 16.6818V8.98291H83.47V16.6818H82.4177Z" fill="white" stroke="white" stroke-width="0.256629" stroke-miterlimit="10"/>
<path d="M88.145 16.6818H87.0926V9.93244H84.7966V8.98291H90.4273V9.93244H88.1313V16.6818H88.145Z" fill="white" stroke="white" stroke-width="0.256629" stroke-miterlimit="10"/>
<path d="M101.1 15.6803C100.294 16.463 99.2962 16.8479 98.0936 16.8479C96.8909 16.8479 95.8933 16.463 95.0869 15.6803C94.2806 14.8976 93.8843 13.948 93.8843 12.8317C93.8843 11.7153 94.2806 10.753 95.0869 9.98309C95.8933 9.20037 96.8909 8.81543 98.0936 8.81543C99.2826 8.81543 100.28 9.20037 101.1 9.98309C101.907 10.7658 102.317 11.7153 102.317 12.8317C102.303 13.9609 101.907 14.9104 101.1 15.6803ZM95.8659 15.0387C96.4672 15.6161 97.2189 15.8984 98.0936 15.8984C98.9682 15.8984 99.7199 15.6161 100.321 15.0387C100.923 14.4613 101.237 13.7299 101.237 12.8317C101.237 11.9335 100.936 11.2021 100.321 10.6247C99.7199 10.0473 98.9682 9.75213 98.0936 9.75213C97.2189 9.75213 96.4672 10.0344 95.8659 10.6118C95.2646 11.2021 94.9503 11.9335 94.9503 12.8317C94.9503 13.7299 95.2646 14.4613 95.8659 15.0387Z" fill="white" stroke="white" stroke-width="0.256629" stroke-miterlimit="10"/>
<path d="M103.793 16.6818V8.98291H105.078L109.068 14.9752H109.109L109.068 13.4868V8.98291H110.121V16.6818H109.027L104.859 10.4072H104.818L104.859 11.8957V16.6818H103.793Z" fill="white" stroke="white" stroke-width="0.256629" stroke-miterlimit="10"/>
<path d="M93.6252 27.9082C90.4135 27.9082 87.7895 30.2051 87.7895 33.3616C87.7895 36.5053 90.4135 38.815 93.6252 38.815C96.8368 38.815 99.4608 36.5053 99.4608 33.3616C99.4608 30.2051 96.8368 27.9082 93.6252 27.9082ZM93.6252 36.6721C91.8622 36.6721 90.3452 35.312 90.3452 33.3616C90.3452 31.3984 91.8622 30.0511 93.6252 30.0511C95.3882 30.0511 96.9052 31.3984 96.9052 33.3616C96.9052 35.312 95.3745 36.6721 93.6252 36.6721ZM80.8879 27.9082C77.6762 27.9082 75.0522 30.2051 75.0522 33.3616C75.0522 36.5053 77.6762 38.815 80.8879 38.815C84.0995 38.815 86.7235 36.5053 86.7235 33.3616C86.7235 30.2051 84.0995 27.9082 80.8879 27.9082ZM80.8879 36.6721C79.1249 36.6721 77.6079 35.312 77.6079 33.3616C77.6079 31.3984 79.1249 30.0511 80.8879 30.0511C82.6509 30.0511 84.1679 31.3984 84.1679 33.3616C84.1679 35.312 82.6509 36.6721 80.8879 36.6721ZM65.7453 29.5892V31.8988H71.6492C71.4716 33.1948 71.0069 34.1572 70.3099 34.8116C69.4489 35.62 68.1096 36.5053 65.7589 36.5053C62.1236 36.5053 59.2809 33.7594 59.2809 30.3462C59.2809 26.933 62.1236 24.1871 65.7589 24.1871C67.7133 24.1871 69.1482 24.9057 70.2006 25.8424L71.9362 24.2128C70.4602 22.8911 68.5059 21.8774 65.7453 21.8774C60.7706 21.8774 56.5886 25.6756 56.5886 30.3591C56.5886 35.0297 60.7706 38.8407 65.7453 38.8407C68.4376 38.8407 70.4602 38.0194 72.0456 36.4668C73.6719 34.9399 74.1776 32.7842 74.1776 31.052C74.1776 30.513 74.1366 30.0126 74.0409 29.602H65.7453V29.5892ZM127.669 31.3856C127.19 30.1666 125.714 27.9082 122.694 27.9082C119.701 27.9082 117.214 30.1153 117.214 33.3616C117.214 36.4155 119.674 38.815 122.981 38.815C125.646 38.815 127.19 37.2881 127.819 36.4027L125.837 35.158C125.181 36.0691 124.279 36.6721 122.981 36.6721C121.683 36.6721 120.753 36.1076 120.166 35.0169L127.942 32.0015L127.669 31.3856ZM119.742 33.2076C119.674 31.1033 121.478 30.0254 122.776 30.0254C123.787 30.0254 124.648 30.5002 124.935 31.1803L119.742 33.2076ZM113.428 38.4942H115.984V22.4549H113.428V38.4942ZM109.246 29.1272H109.15C108.576 28.4857 107.483 27.9082 106.089 27.9082C103.178 27.9082 100.513 30.3077 100.513 33.3873C100.513 36.4412 103.178 38.8278 106.089 38.8278C107.469 38.8278 108.576 38.2504 109.15 37.5832H109.232V38.3659C109.232 40.4574 108.043 41.5738 106.13 41.5738C104.572 41.5738 103.602 40.5216 103.205 39.6362L100.978 40.5088C101.62 41.9587 103.315 43.7295 106.13 43.7295C109.123 43.7295 111.651 42.0742 111.651 38.0451V28.2419H109.232V29.1272H109.246ZM106.308 36.6721C104.545 36.6721 103.069 35.2863 103.069 33.3873C103.069 31.4626 104.545 30.0639 106.308 30.0639C108.043 30.0639 109.41 31.4754 109.41 33.3873C109.424 35.2863 108.057 36.6721 106.308 36.6721ZM139.641 22.4549H133.532V38.4942H136.087V32.4121H139.654C142.483 32.4121 145.258 30.4874 145.258 27.4335C145.258 24.3796 142.456 22.4549 139.641 22.4549ZM139.695 30.1794H136.074V24.6747H139.695C141.609 24.6747 142.688 26.1632 142.688 27.4206C142.688 28.6781 141.609 30.1794 139.695 30.1794ZM155.467 27.8826C153.622 27.8826 151.708 28.6525 150.916 30.3334L153.184 31.2188C153.663 30.3334 154.565 30.0383 155.508 30.0383C156.833 30.0383 158.173 30.7825 158.186 32.1041V32.2709C157.722 32.0271 156.738 31.655 155.521 31.655C153.075 31.655 150.601 32.9125 150.601 35.2607C150.601 37.4035 152.597 38.7893 154.838 38.7893C156.546 38.7893 157.503 38.0708 158.091 37.2239H158.173V38.4685H160.633V32.3223C160.646 29.4737 158.378 27.8826 155.467 27.8826ZM155.152 36.6721C154.319 36.6721 153.157 36.2744 153.157 35.312C153.157 34.0802 154.606 33.6054 155.863 33.6054C156.984 33.6054 157.517 33.8364 158.186 34.1443C157.995 35.62 156.628 36.6721 155.152 36.6721ZM169.612 28.229L166.687 35.1837H166.605L163.571 28.229H160.824L165.375 37.9553L162.778 43.3573H165.443L172.454 28.229H169.612ZM146.652 38.4942H149.207V22.4549H146.652V38.4942Z" fill="white"/>
<path d="M14.7686 9.67478C14.3722 10.0726 14.1399 10.6885 14.1399 11.4712V39.8544C14.1399 40.65 14.3722 41.2659 14.7686 41.6509L14.8642 41.7407L31.7972 25.8553V25.6628V25.4703L14.8642 9.58496L14.7686 9.67478Z" fill="url(#paint0_linear)"/>
<path d="M37.4435 31.1547L31.7991 25.8553V25.6628V25.4703L37.4435 20.1709L37.5665 20.2351L44.2495 23.8022C46.1629 24.8159 46.1629 26.484 44.2495 27.5105L37.5665 31.0777L37.4435 31.1547Z" fill="url(#paint1_linear)"/>
<path d="M37.5657 31.0908L31.7984 25.6631L14.7698 41.6511C15.3984 42.2798 16.4371 42.3568 17.6124 41.7281L37.5657 31.0908Z" fill="url(#paint2_linear)"/>
<path d="M37.5651 20.248L17.5983 9.59791C16.4229 8.96917 15.3843 9.04616 14.7556 9.6749L31.7978 25.6629L37.5651 20.248Z" fill="url(#paint3_linear)"/>
<path opacity="0.2" d="M37.4414 30.9624L17.5975 41.5484C16.4905 42.1386 15.4929 42.1001 14.8642 41.5612L14.7686 41.651L14.8642 41.7408C15.5066 42.2797 16.4905 42.3182 17.5975 41.728L37.5644 31.0779L37.4414 30.9624Z" fill="black"/>
<path opacity="0.12" d="M14.7674 41.4712C14.371 41.0734 14.1387 40.4575 14.1387 39.6748V39.8673C14.1387 40.6628 14.371 41.2787 14.7674 41.6637L14.8631 41.5738L14.7674 41.4712Z" fill="black"/>
<path opacity="0.12" d="M44.2489 27.3312L37.4292 30.9624L37.5522 31.0779L44.2352 27.5108C45.1919 26.9975 45.6702 26.3303 45.6702 25.6631C45.6019 26.2662 45.1235 26.8692 44.2489 27.3312Z" fill="black"/>
<path opacity="0.25" d="M17.5983 9.77855L44.2484 23.9958C45.1094 24.4577 45.6014 25.048 45.6834 25.6639C45.6834 24.9967 45.205 24.3166 44.2484 23.8162L17.5983 9.59891C15.685 8.58522 14.127 9.4321 14.127 11.4851V11.6776C14.127 9.61174 15.6986 8.76486 17.5983 9.77855Z" fill="white"/>
<defs>
<linearGradient id="paint0_linear" x1="30.2934" y1="11.1758" x2="8.80179" y2="34.0663" gradientUnits="userSpaceOnUse">
<stop stop-color="#00A0FF"/>
<stop offset="0.00657445" stop-color="#00A1FF"/>
<stop offset="0.2601" stop-color="#00BEFF"/>
<stop offset="0.5122" stop-color="#00D2FF"/>
<stop offset="0.7604" stop-color="#00DFFF"/>
<stop offset="1" stop-color="#00E3FF"/>
</linearGradient>
<linearGradient id="paint1_linear" x1="46.7427" y1="25.6647" x2="13.6734" y2="25.6647" gradientUnits="userSpaceOnUse">
<stop stop-color="#FFE000"/>
<stop offset="0.4087" stop-color="#FFBD00"/>
<stop offset="0.7754" stop-color="#FFA500"/>
<stop offset="1" stop-color="#FF9C00"/>
</linearGradient>
<linearGradient id="paint2_linear" x1="34.4318" y1="28.6094" x2="5.28748" y2="59.6506" gradientUnits="userSpaceOnUse">
<stop stop-color="#FF3A44"/>
<stop offset="1" stop-color="#C31162"/>
</linearGradient>
<linearGradient id="paint3_linear" x1="10.4742" y1="0.226189" x2="23.4884" y2="14.0873" gradientUnits="userSpaceOnUse">
<stop stop-color="#32A071"/>
<stop offset="0.0685" stop-color="#2DA771"/>
<stop offset="0.4762" stop-color="#15CF74"/>
<stop offset="0.8009" stop-color="#06E775"/>
<stop offset="1" stop-color="#00F076"/>
</linearGradient>
</defs>
</svg>
